<svg width="20" height="20" viewBox="0 0 20 20" fill="none" xmlns="http://www.w3.org/2000/svg">
<path d="M17.5016 9.86296C17.4955 10.1099 17.3989 10.3558 17.2568 10.5159L12.359 16.0667C11.954 16.4821 11.3559 16.4903 10.9712 16.1482C10.5865 15.8064 10.5476 15.1452 10.8897 14.7605L14.3487 10.8423H2.80798C2.26705 10.8423 1.82837 10.4036 1.82837 9.86269C1.82837 9.32174 2.26704 8.88308 2.80798 8.88308H14.3487L10.8897 4.96491C10.5478 4.58022 10.5959 3.92926 10.9712 3.57714C11.3627 3.20976 12.0171 3.274 12.359 3.65868L17.2568 9.20945C17.4308 9.4051 17.4996 9.60059 17.5016 9.86296Z" fill="#292B32"/>
</svg>
