<svg width="16" height="16" viewBox="0 0 16 16" fill="none" xmlns="http://www.w3.org/2000/svg">
<path d="M1.46338 7.89017C1.4683 7.69266 1.54555 7.49587 1.65925 7.36779L5.57748 2.92718C5.90145 2.59483 6.37992 2.58827 6.68769 2.86195C6.99544 3.13545 7.0266 3.66439 6.75292 3.97216L3.98572 7.1067H13.2183C13.651 7.1067 14.002 7.45763 14.002 7.89039C14.002 8.32315 13.651 8.67408 13.2183 8.67408H3.98572L6.75292 11.8086C7.02642 12.1164 6.98797 12.6371 6.68769 12.9188C6.37448 13.2127 5.85096 13.1613 5.57748 12.8536L1.65925 8.41299C1.52004 8.25647 1.46502 8.10007 1.46338 7.89017Z" fill="#292B32"/>
</svg>
