<svg width="16" height="16" viewBox="0 0 16 16" fill="none" xmlns="http://www.w3.org/2000/svg">
<path d="M3.38745 0L3.45923 0.00292969C3.81679 0.0343222 4.11558 0.298055 4.18726 0.655518L4.69922 3.2146H14.959C15.202 3.21467 15.4325 3.3226 15.5874 3.50977C15.7424 3.69707 15.8057 3.94406 15.7603 4.18286L14.7319 9.57642L14.7305 9.58301C14.6343 10.0667 14.3712 10.5013 13.9871 10.8105C13.6069 11.1165 13.1322 11.2791 12.6445 11.2734V11.2749H6.39624V11.2734C5.90856 11.2792 5.43391 11.1165 5.05371 10.8105C4.66955 10.5013 4.4057 10.0667 4.30957 9.58301L3.23438 4.21069C3.23154 4.19812 3.2293 4.18539 3.22705 4.17261L2.71875 1.63184H0.815918C0.365307 1.63184 0 1.26653 0 0.815918C0 0.365307 0.365307 0 0.815918 0H3.38745ZM5.90991 9.26367L5.91064 9.26514C5.93218 9.37315 5.9911 9.46999 6.0769 9.53906C6.16275 9.60815 6.26996 9.64514 6.38013 9.64307H12.6599C12.7702 9.64518 12.878 9.6082 12.9639 9.53906C13.0496 9.46999 13.1086 9.3731 13.1301 9.26514L13.9724 4.84644H5.02588L5.90991 9.26367ZM7.41797 13.6729C7.41797 14.4784 6.76528 15.1317 5.95972 15.1318C5.15406 15.1318 4.50073 14.4785 4.50073 13.6729C4.50085 12.8673 5.15414 12.2146 5.95972 12.2146L6.1084 12.2219C6.84404 12.2965 7.41786 12.9176 7.41797 13.6729ZM14.4895 13.6729C14.4895 14.4785 13.8362 15.1318 13.0305 15.1318C12.2753 15.1318 11.6543 14.5578 11.5796 13.8223L11.5723 13.6729L11.5796 13.5242C11.6542 12.7885 12.2752 12.2147 13.0305 12.2146L13.1799 12.2219C13.9154 12.2967 14.4894 12.9177 14.4895 13.6729Z" fill="white"/>
</svg>
