<svg width="16" height="16" viewBox="0 0 16 16" fill="none" xmlns="http://www.w3.org/2000/svg">
<path d="M4.31713 3.13813C4.05678 2.87778 3.63467 2.87778 3.37432 3.13813L3.13862 3.37384C2.87827 3.63419 2.87827 4.0563 3.13862 4.31664L6.9055 8.08352L3.1687 11.8203C2.90835 12.0807 2.90835 12.5028 3.1687 12.7631L3.4044 12.9988C3.66475 13.2592 4.08686 13.2592 4.34721 12.9988L8.08401 9.26203L11.6239 12.8019C11.8843 13.0623 12.3064 13.0623 12.5667 12.8019L12.8024 12.5662C13.0628 12.3059 13.0628 11.8838 12.8024 11.6234L9.26252 8.08352L12.8325 4.51355C13.0928 4.2532 13.0928 3.83109 12.8325 3.57075L12.5968 3.33504C12.3364 3.07469 11.9143 3.07469 11.654 3.33504L8.08401 6.90501L4.31713 3.13813Z" fill="#292B32"/>
</svg>
