<svg width="16" height="16" viewBox="0 0 16 16" fill="none" xmlns="http://www.w3.org/2000/svg">
<path fill-rule="evenodd" clip-rule="evenodd" d="M4.6748 5.3255C4.67142 5.15353 4.70237 4.98261 4.76584 4.82274C4.82931 4.66288 4.92403 4.51728 5.04446 4.39446C5.16488 4.27164 5.30859 4.17408 5.46718 4.10748C5.62576 4.04087 5.79604 4.00657 5.96805 4.00657C6.14005 4.00657 6.31033 4.04087 6.46892 4.10748C6.6275 4.17408 6.77121 4.27164 6.89164 4.39446C7.01206 4.51728 7.10678 4.66288 7.17025 4.82274C7.23373 4.98261 7.26468 5.15353 7.2613 5.3255C7.2613 5.66855 7.12502 5.99756 6.88244 6.24014C6.63986 6.48272 6.31085 6.619 5.9678 6.619C5.62474 6.619 5.29573 6.48272 5.05315 6.24014C4.81058 5.99756 4.6748 5.66855 4.6748 5.3255ZM3.3553 6.032H2.61055C2.22077 6.032 1.9048 5.71602 1.9048 5.32625C1.9048 4.93647 2.22077 4.6205 2.61055 4.6205H3.3548C3.51015 4.04653 3.8502 3.53969 4.3224 3.1783C4.7946 2.81692 5.37267 2.62109 5.9673 2.62109C6.56192 2.62109 7.13999 2.81692 7.6122 3.1783C8.0844 3.53969 8.42445 4.04653 8.5798 4.6205H13.389C13.7788 4.6205 14.0948 4.93647 14.0948 5.32625C14.0948 5.71602 13.7788 6.032 13.389 6.032H8.5798C8.42413 6.60554 8.08401 7.1119 7.61194 7.47293C7.13987 7.83395 6.56209 8.02956 5.9678 8.02956C5.3735 8.02956 4.79573 7.83395 4.32366 7.47293C3.85159 7.1119 3.51097 6.60554 3.3553 6.032ZM7.4823 11.0625H2.6103C2.22038 11.0625 1.9043 10.7464 1.9043 10.3565C1.9043 9.96658 2.22038 9.6505 2.6103 9.6505H7.4823C7.63751 9.08269 7.97504 8.58164 8.44294 8.22447C8.91084 7.86731 9.48316 7.67383 10.0718 7.67383C10.6604 7.67383 11.2328 7.86731 11.7007 8.22447C12.1686 8.58164 12.5061 9.08269 12.6613 9.6505H13.3888C13.7787 9.6505 14.0948 9.96658 14.0948 10.3565C14.0948 10.7464 13.7787 11.0625 13.3888 11.0625H12.6613C12.5061 11.6303 12.1686 12.1314 11.7007 12.4885C11.2328 12.8457 10.6604 13.0392 10.0718 13.0392C9.48316 13.0392 8.91084 12.8457 8.44294 12.4885C7.97504 12.1314 7.63751 11.6303 7.4823 11.0625ZM8.8003 10.357C8.8003 10.0198 8.93426 9.69636 9.17271 9.45791C9.41116 9.21946 9.73457 9.0855 10.0718 9.0855C10.409 9.0855 10.7324 9.21946 10.9709 9.45791C11.2093 9.69636 11.3433 10.0198 11.3433 10.357C11.3433 10.6942 11.2093 11.0176 10.9709 11.2561C10.7324 11.4945 10.409 11.6285 10.0718 11.6285C9.73457 11.6285 9.41116 11.4945 9.17271 11.2561C8.93426 11.0176 8.8003 10.6942 8.8003 10.357Z" fill="#39AA5D"/>
</svg>
