<svg width="16" height="16" viewBox="0 0 16 16" fill="none" xmlns="http://www.w3.org/2000/svg">
<path d="M2.00016 4.66675C1.63197 4.66675 1.3335 4.96522 1.3335 5.33341V5.66675C1.3335 6.03494 1.63197 6.33341 2.00016 6.33341H14.0002C14.3684 6.33341 14.6668 6.03494 14.6668 5.66675V5.33341C14.6668 4.96522 14.3684 4.66675 14.0002 4.66675H2.00016Z" fill="white"/>
<path d="M2.00016 9.66675C1.63197 9.66675 1.3335 9.96522 1.3335 10.3334V10.6667C1.3335 11.0349 1.63197 11.3334 2.00016 11.3334H14.0002C14.3684 11.3334 14.6668 11.0349 14.6668 10.6667V10.3334C14.6668 9.96522 14.3684 9.66675 14.0002 9.66675H2.00016Z" fill="white"/>
</svg>
