<svg width="16" height="16" viewBox="0 0 16 16" fill="none" xmlns="http://www.w3.org/2000/svg">
<rect x="0.5" y="0.5" width="15" height="15" rx="3.5" stroke="#292B32"/>
<path fill-rule="evenodd" clip-rule="evenodd" d="M4.50968 4.12793V6.87282C4.92743 6.37597 5.42696 6.12334 6.00943 6.12334C6.28813 6.11924 6.56421 6.17762 6.8174 6.29418C7.05844 6.40655 7.23935 6.55076 7.36012 6.72682C7.48229 6.90278 7.56746 7.10172 7.61046 7.31157C7.65518 7.52407 7.67697 7.85619 7.67697 8.30527V11.2401H6.37749V8.59611C6.37749 8.07137 6.35456 7.73924 6.30487 7.59783C6.25853 7.45957 6.16663 7.34113 6.04421 7.26189C5.91961 7.17704 5.76368 7.13615 5.57602 7.13615C5.37256 7.13298 5.17253 7.18873 5.00004 7.29667C4.82422 7.41032 4.69269 7.58084 4.6274 7.77975C4.5479 7.99455 4.50968 8.31253 4.50968 8.73332V11.2393H3.21021V4.12793H4.50968ZM9.62274 4.12793V6.87282C10.0405 6.37597 10.54 6.12334 11.1225 6.12334C11.4017 6.11953 11.6782 6.17788 11.932 6.29418C12.1715 6.40655 12.352 6.55076 12.4736 6.72682C12.5953 6.90297 12.6803 7.10185 12.7235 7.31157C12.7679 7.52407 12.7904 7.85619 12.7904 8.30527V11.2401H11.4909V8.59611C11.4909 8.07137 11.4665 7.73924 11.4168 7.59783C11.3704 7.45957 11.2785 7.34113 11.1561 7.26189C11.0323 7.17704 10.8756 7.13615 10.6872 7.13615C10.4839 7.13314 10.284 7.18888 10.1116 7.29667C9.93679 7.41136 9.80567 7.58151 9.73931 7.77975C9.66287 7.99455 9.62198 8.31253 9.62198 8.73332V11.2393H8.32518V4.12793H9.62274Z" fill="#292B32"/>
</svg>
