<svg width="76" height="28" viewBox="0 0 76 28" fill="none" xmlns="http://www.w3.org/2000/svg">
<path d="M69.8864 15.0493C69.2901 15.0068 68.6497 14.9855 67.9652 14.9855C67.2806 14.9855 66.585 15.0068 65.8784 15.0493C64.8846 15.0918 64.1228 15.3043 63.5928 15.687C63.0628 16.0483 62.7978 16.5691 62.7978 17.2493C62.7978 17.9295 63.0407 18.4821 63.5266 18.9072C64.0345 19.3111 64.719 19.513 65.5802 19.513C66.8169 19.513 67.8437 19.2261 68.6608 18.6522C69.4778 18.0783 69.8864 17.3237 69.8864 16.3884V15.0493ZM69.9526 21.6812V19.0985L70.4495 19.1623C70.0078 20.0126 69.3343 20.7034 68.4289 21.2348C67.5456 21.7449 66.4525 22 65.1496 22C64.0234 22 63.0407 21.8299 62.2016 21.4899C61.3845 21.1285 60.7441 20.6077 60.2804 19.9275C59.8167 19.2261 59.5848 18.4077 59.5848 17.4725C59.5848 15.8783 60.1258 14.7198 61.2079 13.9971C62.312 13.2744 63.7805 12.8705 65.6134 12.7855C66.3863 12.743 67.1371 12.7324 67.8658 12.7536C68.6166 12.7749 69.2901 12.7961 69.8864 12.8174V11.6058C69.8864 10.5855 69.6103 9.84154 69.0583 9.37391C68.5062 8.88502 67.7554 8.64058 66.8058 8.64058C65.7459 8.64058 64.9178 8.89565 64.3215 9.40579C63.7474 9.89468 63.3499 10.5111 63.1291 11.2551L60.1479 10.6812C60.4792 9.257 61.2079 8.13043 62.3341 7.30144C63.4824 6.47246 64.973 6.05797 66.8058 6.05797C68.0424 6.05797 69.1245 6.24927 70.052 6.63188C70.9794 7.01449 71.6971 7.60966 72.205 8.41739C72.735 9.20386 73 10.2348 73 11.5101V21.6812H69.9526Z" fill="#292B32"/>
<path d="M54.2154 21.6812V18.6841H54.7453C54.4362 19.7043 53.7847 20.5121 52.791 21.1072C51.8194 21.7024 50.6159 22 49.1805 22C47.7672 22 46.5085 21.6918 45.4044 21.0754C44.3223 20.4589 43.4722 19.5556 42.8538 18.3652C42.2355 17.1749 41.9264 15.7295 41.9264 14.029C41.9264 12.7749 42.103 11.6483 42.4564 10.6493C42.8318 9.65024 43.3507 8.81063 44.0132 8.13043C44.6757 7.45024 45.4706 6.9401 46.3981 6.6C47.3256 6.23865 48.3414 6.05797 49.4455 6.05797C50.7263 6.05797 51.8636 6.34493 52.8573 6.91884C53.851 7.4715 54.5135 8.22609 54.8447 9.18261H54.0829V0H57.329V21.6812H54.2154ZM54.0829 14.7304V13.1681C54.0829 12.2116 53.8952 11.4039 53.5198 10.7449C53.1664 10.086 52.6585 9.58647 51.9961 9.24638C51.3557 8.90628 50.6159 8.73623 49.7767 8.73623C48.8493 8.73623 48.0433 8.94879 47.3587 9.37391C46.6741 9.79903 46.1331 10.4048 45.7356 11.1913C45.3602 11.9778 45.1725 12.913 45.1725 13.9971C45.1725 15.5488 45.559 16.8242 46.3319 17.8232C47.1268 18.8222 48.242 19.3217 49.6774 19.3217C51.1348 19.3217 52.2279 18.8966 52.9566 18.0464C53.7075 17.1749 54.0829 16.0696 54.0829 14.7304Z" fill="#292B32"/>
<path d="M32.5738 21.6812V6.37681H35.6543V9.24638H35.2568C35.588 8.4599 36.0297 7.86473 36.5818 7.46087C37.1338 7.057 37.7301 6.78067 38.3705 6.63188C39.0109 6.46183 39.6181 6.37681 40.1923 6.37681H41.5504V9.27826H40.2585C39.5519 9.27826 38.8563 9.37391 38.1717 9.56521C37.5092 9.73526 36.9461 10.0116 36.4824 10.3942C36.0407 10.7768 35.8199 11.2763 35.8199 11.8928V21.6812H32.5738Z" fill="#292B32"/>
<path d="M18.4824 12.4667H28.0883L27.5915 13.3594C27.5915 13.2744 27.5915 13.1681 27.5915 13.0406C27.5915 12.913 27.5915 12.8068 27.5915 12.7217C27.5915 11.5527 27.2381 10.5749 26.5315 9.7884C25.8469 9.00193 24.8532 8.60869 23.5503 8.60869C22.2254 8.60869 21.1544 9.01256 20.3373 9.82029C19.5423 10.6068 19.1007 11.7865 19.0124 13.3594L18.4824 12.4667ZM30.5726 14.7304H18.4824L19.0124 14.0928C19.0124 14.114 19.0124 14.1353 19.0124 14.1565C19.0124 14.1778 19.0124 14.2097 19.0124 14.2522C19.0124 15.9527 19.3988 17.2386 20.1717 18.1101C20.9667 18.9816 22.0266 19.4174 23.3516 19.4174C24.4999 19.4174 25.3942 19.1623 26.0346 18.6522C26.675 18.1208 27.1277 17.515 27.3927 16.8348L30.2083 17.3768C29.9874 18.2271 29.5789 19.0029 28.9827 19.7043C28.4085 20.4058 27.6467 20.9691 26.6971 21.3942C25.7476 21.7981 24.6214 22 23.3185 22C21.8831 22 20.6023 21.7024 19.4761 21.1072C18.372 20.5121 17.4997 19.63 16.8593 18.4609C16.241 17.2705 15.9318 15.7932 15.9318 14.029C15.9318 12.2647 16.2631 10.7981 16.9256 9.62898C17.6101 8.43864 18.5265 7.54589 19.6748 6.95072C20.8452 6.35555 22.1371 6.05797 23.5503 6.05797C24.9636 6.05797 26.2003 6.34492 27.2602 6.91884C28.3202 7.49275 29.1373 8.32173 29.7114 9.40579C30.3076 10.4899 30.6057 11.7971 30.6057 13.3275C30.6057 13.6039 30.6057 13.8696 30.6057 14.1246C30.6057 14.3585 30.5947 14.5604 30.5726 14.7304Z" fill="#292B32"/>
<path d="M6.12793 21.6812L0 6.37681H3.41177L8.64535 20.087H7.51914L12.7527 6.37681H16.0651L9.87094 21.6812H6.12793Z" fill="#292B32"/>
</svg>
