<svg width="12" height="12" viewBox="0 0 12 12" fill="none" xmlns="http://www.w3.org/2000/svg">
<path d="M6.83333 0.666667C6.83333 0.298477 6.53486 0 6.16667 0H5.83333C5.46514 0 5.16667 0.298476 5.16667 0.666666V5.16667H0.666667C0.298477 5.16667 0 5.46514 0 5.83333V6.16667C0 6.53486 0.298476 6.83333 0.666666 6.83333H5.16667V11.3333C5.16667 11.7015 5.46514 12 5.83333 12H6.16667C6.53486 12 6.83333 11.7015 6.83333 11.3333V6.83333H11.3333C11.7015 6.83333 12 6.53486 12 6.16667V5.83333C12 5.46514 11.7015 5.16667 11.3333 5.16667H6.83333V0.666667Z" fill="#292B32"/>
</svg>
