<svg width="18" height="18" viewBox="0 0 18 18" fill="none" xmlns="http://www.w3.org/2000/svg">
<path fill-rule="evenodd" clip-rule="evenodd" d="M4.15691 2.47305C4.677 1.95573 5.51728 1.9557 6.03741 2.47298L8.29959 4.72277C8.63003 5.05141 8.63146 5.5857 8.30278 5.91609C7.97412 6.24646 7.43988 6.24783 7.10953 5.91917L5.94144 4.75703V14.4281C5.94144 14.8941 5.56368 15.2718 5.09769 15.2718C4.6317 15.2718 4.25394 14.8941 4.25394 14.4281V4.75703L3.08484 5.91943C2.75442 6.24796 2.22023 6.24644 1.89168 5.91603C1.56317 5.58564 1.56463 5.05151 1.89497 4.72294L4.15691 2.47305ZM12.0586 13.2429V3.57184C12.0586 3.10585 12.4364 2.72809 12.9024 2.72809C13.3684 2.72809 13.7461 3.10585 13.7461 3.57184V13.2429L14.9147 12.0806C15.2451 11.752 15.7793 11.7534 16.108 12.0838C16.4367 12.4142 16.4353 12.9485 16.1048 13.2772L13.8426 15.527C13.3225 16.0443 12.4823 16.0443 11.9622 15.527L9.69995 13.2772C9.36949 12.9485 9.36806 12.4142 9.69677 12.0838C10.0254 11.7534 10.5596 11.752 10.89 12.0806L12.0586 13.2429Z" fill="#39AA5D"/>
</svg>
